<?xml version="1.0" encoding="UTF-8" standalone="no"?>
<svg xmlns="http://www.w3.org/2000/svg" version="1.1"
     viewBox="0 0 3070.876066 626"
     width="3070.876066pt" height="626pt"
     preserveAspectRatio="xMidYMid meet">
  <title>Ornamental Compass Frame</title>

  <g id="compass-original" fill="#d6b06a" stroke="none"
     transform="translate(-238.561967,1306.000000) scale(0.100000,-0.100000)">
<path d="M17725 13043 c-4 -10 -20 -71 -36 -137 -35 -143 -114 -387 -169 -521
-22 -54 -40 -102 -40 -107 0 -5 14 -21 30 -35 17 -13 30 -29 30 -35 0 -28 -86
-221 -104 -234 -11 -7 -34 -14 -51 -14 -35 0 -55 -15 -55 -42 0 -9 14 -51 30
-93 17 -42 30 -89 30 -106 0 -45 -44 -122 -90 -159 -33 -26 -40 -38 -40 -66 0
-43 -54 -104 -135 -153 -48 -29 -60 -33 -76 -23 -31 20 -45 14 -102 -38 -51
-46 -87 -63 -87 -41 0 37 24 64 77 88 106 48 263 167 263 199 0 33 -55 13
-190 -70 -93 -57 -124 -59 -256 -11 -53 19 -100 35 -105 35 -16 0 -9 -32 15
-74 32 -55 56 -139 56 -196 0 -42 -7 -55 -88 -162 -48 -64 -106 -148 -127
-187 -22 -39 -43 -71 -47 -71 -4 0 -48 25 -98 55 -157 95 -200 112 -200 79 0
-17 125 -260 148 -286 8 -10 23 -18 34 -18 10 0 18 7 19 18 0 10 3 12 6 5 6
-15 -32 -132 -51 -159 -13 -17 -18 -16 -112 28 -158 74 -231 86 -218 34 4 -18
1 -27 -13 -34 -22 -11 -121 -28 -219 -38 l-72 -6 -133 66 c-134 66 -315 133
-327 121 -4 -3 1 -20 11 -36 25 -45 22 -54 -30 -87 -144 -91 -279 -114 -758
-132 -386 -14 -492 -24 -516 -46 -17 -16 -26 -16 -90 -4 -80 14 -104 12 -449
-30 -129 -16 -255 -36 -279 -45 -58 -20 -651 -31 -2571 -45 -1410 -11 -2113
-20 -3005 -41 -264 -6 -966 -11 -1560 -11 -1047 -1 -1546 9 -1748 33 -78 9
-91 9 -107 -6 -26 -24 -42 -72 -27 -82 7 -5 206 -10 444 -13 293 -3 436 -9
443 -16 8 -8 -83 -13 -327 -17 -340 -6 -387 -10 -380 -31 4 -16 106 -66 136
-67 25 -1 25 -1 -4 -10 -35 -12 -254 -3 -333 12 -91 18 -91 47 -1 231 27 56
49 107 49 114 0 7 16 31 35 54 34 40 53 85 42 96 -7 8 -81 -31 -288 -152 -100
-58 -200 -112 -222 -120 -53 -19 -178 -18 -224 1 -19 8 -42 15 -49 15 -8 0
-42 -34 -76 -76 -75 -91 -198 -199 -285 -250 -34 -20 -60 -40 -57 -45 3 -5
122 -9 266 -9 l260 0 46 41 c66 58 103 72 172 64 31 -4 63 -11 71 -15 26 -16
-8 -35 -62 -34 -60 1 -68 -21 -11 -33 20 -4 156 -8 302 -8 209 1 282 5 345 18
65 13 88 15 115 5 20 -6 104 -12 190 -13 85 -1 484 -7 885 -13 873 -13 8093
-15 9479 -3 727 7 950 12 956 21 6 9 14 8 36 -6 23 -15 52 -20 151 -23 l123
-3 0 -107 c0 -123 2 -128 101 -223 81 -78 113 -125 199 -290 l68 -130 21 92
c39 171 43 143 -58 398 -50 127 -91 234 -91 238 0 4 20 33 43 63 64 82 70 97
64 161 -7 79 4 92 42 52 16 -18 32 -46 36 -62 13 -60 55 -64 83 -6 12 23 18
26 42 21 26 -6 29 -4 28 22 -1 38 13 62 62 106 l40 37 103 0 c207 0 367 37
394 90 8 16 21 25 35 25 31 0 37 44 8 70 -32 29 -24 38 26 32 56 -6 99 -35 99
-68 0 -23 3 -24 75 -24 72 0 75 1 75 24 0 33 43 62 99 68 50 6 58 -3 26 -32
-29 -26 -23 -70 8 -70 14 0 27 -9 35 -25 27 -53 187 -90 394 -90 l103 0 40
-37 c49 -44 63 -68 62 -106 -1 -26 1 -28 29 -22 24 6 30 3 38 -17 24 -63 65
-60 88 8 13 39 60 91 71 79 4 -3 5 -35 4 -70 -4 -72 2 -85 65 -166 23 -30 43
-59 43 -63 0 -4 -41 -111 -91 -238 -101 -255 -97 -227 -58 -398 l21 -92 68
130 c86 165 118 212 199 291 100 96 101 99 101 222 l0 107 123 3 c99 3 128 8
151 23 22 14 30 15 36 6 6 -9 229 -14 956 -21 1386 -12 8606 -10 9479 3 402 6
800 12 885 13 86 1 170 7 190 13 27 10 50 8 115 -5 63 -13 136 -17 345 -18
146 0 282 4 303 8 56 12 48 34 -12 33 -54 -1 -88 18 -62 34 8 4 40 11 71 15
69 8 106 -6 172 -64 l46 -41 260 0 c144 0 263 4 266 9 3 5 -23 25 -57 45 -87
51 -210 159 -285 250 -34 42 -68 76 -76 76 -7 0 -30 -7 -49 -15 -46 -19 -171
-20 -224 -1 -22 8 -122 62 -222 120 -207 121 -281 160 -288 152 -11 -11 8 -56
42 -96 19 -23 35 -47 35 -54 0 -7 22 -58 49 -114 90 -184 90 -213 -1 -231 -79
-15 -298 -24 -333 -12 -29 9 -29 9 -4 10 30 1 132 51 136 67 7 21 -40 25 -380
31 -244 4 -335 9 -327 17 7 7 150 13 443 16 238 3 437 8 444 13 15 10 -1 58
-27 82 -16 15 -29 15 -107 6 -202 -24 -701 -34 -1748 -33 -594 0 -1296 5
-1560 11 -892 21 -1595 30 -3005 41 -1920 14 -2513 25 -2571 45 -24 9 -150 29
-279 45 -345 42 -369 44 -449 30 -64 -12 -73 -12 -90 4 -24 22 -130 32 -516
46 -479 18 -614 41 -757 132 -53 33 -56 42 -31 87 10 16 15 33 11 36 -12 12
-193 -55 -327 -121 l-133 -66 -72 6 c-98 10 -197 27 -219 38 -14 7 -17 16 -13
34 13 52 -60 40 -218 -34 -94 -44 -99 -45 -112 -28 -19 27 -57 144 -51 159 3
7 6 5 6 -5 1 -11 9 -18 19 -18 11 0 26 8 34 18 23 26 148 269 148 286 0 33
-43 16 -200 -79 -50 -30 -94 -55 -98 -55 -4 0 -25 32 -47 71 -22 39 -78 121
-124 182 -46 61 -87 122 -91 136 -10 38 15 147 50 214 30 58 37 87 21 87 -5 0
-52 -16 -105 -35 -132 -48 -163 -46 -256 11 -135 83 -190 103 -190 70 0 -32
157 -151 263 -199 53 -24 77 -51 77 -88 0 -22 -36 -5 -87 41 -57 52 -71 58
-102 38 -16 -10 -28 -6 -76 23 -81 49 -135 110 -135 153 0 28 -7 40 -40 66
-46 37 -90 114 -90 159 0 17 14 64 30 106 17 42 30 84 30 93 0 27 -20 42 -55
42 -17 0 -40 7 -51 14 -18 13 -104 206 -104 234 0 6 14 22 30 35 17 14 30 30
30 34 0 5 -17 51 -39 103 -53 131 -135 384 -170 526 -33 133 -40 154 -51 154
-4 0 -11 -8 -15 -17z"/>
<path d="M15842 10744 c-39 -27 -23 -84 23 -84 54 0 88 67 46 90 -27 14 -43
13 -69 -6z"/>
<path d="M19568 10749 c-41 -23 -5 -89 47 -89 46 0 62 57 23 84 -26 18 -46 20
-70 5z"/>
<path d="M17200 10190 c0 -11 65 -24 79 -15 24 14 9 25 -34 25 -25 0 -45 -4
-45 -10z"/>
<path d="M18190 10185 c0 -20 50 -20 76 0 18 13 15 14 -28 15 -36 0 -48 -4
-48 -15z"/>
<path d="M18360 10037 c0 -20 97 -105 129 -112 56 -12 66 10 24 50 -47 44
-153 88 -153 62z"/>
<path d="M17020 10017 c-84 -44 -105 -108 -30 -92 33 7 120 82 120 103 0 19
-43 14 -90 -11z"/>
<path d="M2546 9991 c-8 -12 16 -135 28 -143 6 -4 42 -8 80 -8 l69 0 -55 58
c-30 31 -60 67 -67 80 -12 22 -45 30 -55 13z"/>
<path d="M32879 9978 c-7 -13 -37 -49 -67 -80 l-55 -58 69 0 c38 0 74 4 80 8
12 8 36 131 28 143 -10 17 -43 9 -55 -13z"/>
<path d="M16795 9718 c17 -56 16 -74 -4 -92 -14 -13 -21 -31 -21 -54 0 -20 -7
-43 -16 -53 -12 -14 -13 -22 -4 -38 20 -38 37 -23 72 62 53 127 54 133 17 168
-37 35 -54 37 -44 7z"/>
<path d="M18646 9719 c-36 -28 -34 -68 10 -173 37 -88 54 -103 74 -65 9 16 8
24 -4 38 -9 10 -16 33 -16 53 0 23 -7 41 -21 54 -20 18 -21 36 -4 92 9 28 -4
28 -39 1z"/>
<path d="M16330 9254 c-11 -28 -14 -505 -4 -566 5 -28 12 -38 25 -38 10 0 30
-12 43 -27 l26 -27 38 38 c32 30 41 34 45 22 9 -23 47 -20 47 3 0 24 -41 57
-80 66 -50 11 -54 24 -45 143 12 147 9 186 -19 298 -29 114 -55 144 -76 88z"/>
<path d="M19096 9265 c-10 -10 -14 -25 -10 -39 3 -12 -4 -50 -16 -84 -25 -71
-27 -114 -15 -269 9 -124 5 -137 -45 -148 -39 -9 -80 -42 -80 -66 0 -23 38
-26 47 -3 4 12 13 8 45 -22 l38 -38 26 27 c13 15 33 27 43 27 13 0 20 10 25
38 8 50 6 531 -3 562 -8 30 -33 37 -55 15z"/>
<path d="M16524 8906 c-8 -22 3 -49 19 -43 6 2 12 14 12 27 0 27 -22 39 -31
16z"/>
<path d="M18924 8906 c-8 -22 3 -49 19 -43 6 2 12 14 12 27 0 27 -22 39 -31
16z"/>
<path d="M16699 7918 c-7 -12 -13 -51 -13 -85 l-1 -63 -40 0 c-22 -1 -98 -1
-168 0 -106 1 -134 -2 -155 -16 -38 -25 -486 -33 -2012 -34 -1559 -1 -3922
-17 -3970 -27 l-35 -7 40 -9 c24 -6 1324 -11 3267 -14 l3227 -4 -9 31 c-5 17
-23 47 -39 66 -22 25 -31 45 -32 72 0 45 -20 104 -36 109 -6 2 -17 -6 -24 -19z"/>
<path d="M18741 7921 c-6 -11 -15 -47 -19 -81 -7 -45 -16 -68 -36 -89 -14 -15
-31 -42 -36 -60 l-9 -32 3227 4 c1943 3 3243 8 3267 14 l40 9 -35 7 c-48 10
-2411 26 -3970 27 -1526 1 -1974 9 -2012 34 -21 14 -49 17 -155 16 -232 -2
-212 -5 -207 33 6 39 -16 129 -33 134 -6 2 -16 -5 -22 -16z"/>
<path d="M2470 7715 c0 -3 9 -19 21 -34 12 -16 24 -51 26 -77 l5 -49 -30 42
c-35 47 -63 66 -94 61 -19 -3 -18 -6 12 -43 65 -80 130 -263 130 -365 0 -27 6
-52 13 -59 15 -11 40 12 132 122 63 77 87 88 120 57 37 -35 33 -8 -16 106 -26
61 -43 118 -46 155 -3 33 -10 62 -14 65 -5 3 -27 -14 -48 -38 l-40 -42 -11 29
c-21 56 -48 75 -107 75 -29 0 -53 -2 -53 -5z"/>
<path d="M2783 7713 c-27 -5 -30 -25 -6 -48 12 -13 26 -15 52 -10 97 18 117
17 157 -3 l39 -21 -41 -1 c-54 0 -73 -20 -50 -55 17 -25 50 -33 61 -15 14 23
57 9 105 -36 73 -68 197 -271 177 -290 -7 -8 -63 67 -82 111 -33 75 -43 90
-85 123 -44 34 -99 42 -107 16 -2 -7 26 -47 62 -89 67 -79 77 -105 27 -68 -87
64 -121 85 -137 81 -28 -5 17 -53 79 -82 33 -16 72 -46 100 -78 58 -66 122
-191 137 -267 16 -85 29 -92 76 -44 56 59 155 88 293 88 99 0 109 -2 178 -34
67 -32 132 -87 132 -112 0 -7 19 -8 53 -4 45 5 68 1 169 -34 64 -23 121 -41
127 -41 20 0 11 18 -33 70 -24 28 -58 78 -76 111 -29 55 -31 62 -16 78 25 27
166 98 234 117 l63 17 -48 26 c-39 22 -54 39 -91 107 -55 101 -78 115 -120 75
-32 -31 -110 -64 -212 -88 l-66 -16 -142 37 c-156 40 -187 43 -195 22 -10 -27
-45 -5 -122 75 -90 95 -97 122 -37 154 27 15 37 26 37 45 0 27 -6 28 -88 14
-33 -5 -45 -2 -80 24 -23 16 -60 35 -82 41 -38 10 -392 14 -442 4z"/>
<path d="M3450 7712 c0 -5 26 -32 58 -61 31 -28 78 -70 103 -94 75 -70 312
-151 374 -127 15 6 27 20 31 37 4 15 15 37 24 48 10 11 21 35 25 53 13 60 75
67 75 8 0 -34 -14 -58 -43 -73 -15 -8 -16 -11 -3 -28 15 -20 15 -20 59 3 60
32 147 110 147 133 0 20 -18 27 -84 31 l-39 3 48 38 48 37 -139 0 c-76 0 -144
-4 -150 -8 -7 -4 -14 -16 -16 -27 -5 -26 -39 -23 -82 8 -29 21 -43 22 -233 25
-123 2 -203 0 -203 -6z"/>
<path d="M4460 7710 c-32 -8 -100 -70 -100 -91 0 -12 32 -27 83 -38 35 -8 51
-7 74 4 45 23 199 45 363 53 107 6 154 12 159 21 7 10 19 4 51 -25 l42 -38 28
34 c16 19 36 47 45 63 l16 27 -363 -1 c-200 -1 -379 -5 -398 -9z"/>
<path d="M5579 7713 c-265 -3 -319 -6 -329 -18 -10 -12 -9 -16 6 -22 11 -5
1086 -8 2389 -8 1789 0 2379 3 2408 12 36 11 39 10 84 -28 l46 -40 53 52 c30
30 54 55 54 56 0 4 -4268 -1 -4711 -4z"/>
<path d="M25240 7666 c30 -31 55 -56 57 -56 1 0 22 18 47 39 44 38 47 39 83
28 52 -17 4787 -17 4803 -1 8 8 6 15 -6 25 -15 12 -387 14 -2528 17 l-2511 3
55 -55z"/>
<path d="M30275 7693 c9 -15 29 -44 45 -63 l28 -34 42 38 c32 29 44 35 51 25
5 -9 52 -15 159 -21 164 -8 318 -30 363 -53 32 -16 109 -5 143 19 17 13 17 16
-9 50 -15 20 -38 41 -50 48 -16 10 -120 14 -405 16 l-384 3 17 -28z"/>
<path d="M31255 7683 l48 -38 -39 -3 c-98 -6 -108 -28 -43 -87 48 -44 127 -95
146 -95 26 0 26 30 -1 55 -29 27 -35 75 -12 94 22 19 53 -3 61 -41 4 -18 15
-42 25 -53 9 -11 20 -33 24 -48 4 -17 16 -31 31 -37 62 -24 299 57 374 127 25
24 72 66 104 94 31 29 57 56 57 61 0 6 -80 8 -202 6 -191 -3 -205 -4 -234 -25
-43 -31 -77 -34 -82 -8 -2 11 -9 23 -16 27 -6 4 -74 8 -150 8 l-139 0 48 -37z"/>
<path d="M32251 7708 c-19 -5 -54 -23 -79 -40 -36 -25 -50 -29 -80 -24 -80 14
-87 13 -87 -14 0 -19 10 -30 37 -45 60 -32 53 -59 -37 -154 -77 -80 -112 -102
-122 -75 -8 21 -39 18 -195 -22 l-142 -37 -66 16 c-102 24 -180 57 -212 88
-42 40 -65 26 -120 -75 -37 -68 -52 -85 -91 -107 l-48 -26 63 -17 c66 -18 209
-89 233 -116 12 -14 11 -22 -9 -65 -13 -28 -46 -79 -74 -114 -53 -65 -61 -81
-41 -81 6 0 63 18 127 41 101 35 124 39 170 34 33 -4 52 -3 52 4 0 25 65 80
132 112 69 32 79 34 178 34 138 0 237 -29 293 -88 47 -48 60 -41 76 44 15 76
79 201 137 267 28 32 67 62 100 78 62 29 107 77 79 82 -16 4 -50 -17 -137 -81
-50 -37 -40 -11 27 68 36 42 64 82 62 89 -8 26 -63 18 -107 -16 -42 -33 -52
-48 -85 -123 -19 -44 -75 -119 -82 -111 -20 19 104 222 177 290 50 47 76 55
109 34 24 -15 49 -4 60 24 12 33 -4 48 -53 48 l-41 1 39 21 c40 20 60 21 157
3 26 -5 40 -3 52 10 25 25 21 42 -14 49 -49 10 -400 5 -438 -6z"/>
<path d="M32882 7698 c-11 -13 -26 -36 -32 -53 l-11 -29 -40 42 c-21 24 -43
41 -48 38 -4 -3 -11 -32 -14 -65 -3 -37 -20 -94 -46 -155 -49 -114 -53 -141
-16 -106 33 31 57 20 120 -57 92 -110 117 -133 132 -122 7 7 13 32 13 59 0
102 65 285 130 365 30 37 31 40 12 43 -31 5 -59 -14 -94 -61 l-30 -42 5 49 c2
26 14 61 26 77 12 15 21 31 21 34 0 3 -24 5 -53 5 -43 0 -58 -5 -75 -22z"/>
<path d="M14710 7592 c0 -15 63 -52 89 -52 24 0 28 22 6 40 -19 16 -95 26 -95
12z"/>
<path d="M20690 7587 c-34 -17 -39 -47 -8 -47 21 0 98 44 98 55 0 10 -66 4
-90 -8z"/>
<path d="M7522 7547 c-50 -51 -53 -67 -13 -67 34 0 81 52 81 88 0 33 -21 26
-68 -21z"/>
<path d="M27890 7566 c0 -34 46 -86 75 -86 42 0 40 21 -8 67 -52 49 -67 53
-67 19z"/>
<path d="M14565 7570 c-11 -18 15 -40 47 -40 32 0 50 27 27 41 -19 12 -66 11
-74 -1z"/>
<path d="M20841 7571 c-23 -14 -5 -41 27 -41 32 0 58 22 47 40 -8 12 -55 13
-74 1z"/>
<path d="M7123 7558 c-50 -24 -22 -48 55 -48 56 0 75 10 70 36 -2 15 -13 19
-53 21 -28 1 -60 -3 -72 -9z"/>
<path d="M28225 7553 c-10 -27 29 -53 80 -53 50 0 95 14 95 30 0 35 -162 56
-175 23z"/>
<path d="M7678 7549 c-32 -18 -42 -48 -22 -70 17 -18 16 -19 -22 -19 -21 0
-536 -5 -1144 -10 -1140 -11 -1491 -20 -1515 -40 -11 -9 -19 -6 -35 10 -20 20
-31 22 -101 18 -64 -2 -83 -7 -100 -25 -13 -12 -19 -28 -16 -37 5 -14 27 -16
139 -16 152 0 160 -3 202 -75 19 -32 35 -47 59 -53 41 -11 43 -37 2 -37 -16 1
-41 5 -55 9 l-24 9 18 -29 c27 -42 68 -84 82 -84 6 0 19 12 29 26 25 38 118
77 185 78 66 1 75 21 16 41 -21 7 -51 28 -66 47 l-28 33 -29 -27 c-38 -36 -73
-43 -112 -24 -26 14 -71 78 -71 102 0 18 621 -21 684 -43 18 -6 16 -8 -13 -13
-19 -3 -36 -10 -38 -16 -6 -18 33 -24 148 -24 104 0 133 8 123 35 -3 7 5 15
18 19 13 3 2499 6 5526 6 3026 0 5502 2 5502 4 0 3 -15 30 -34 61 l-34 56
-1008 0 c-2571 -2 -7316 -12 -7741 -17 l-473 -5 0 45 c0 27 -6 51 -16 60 -8 9
-16 16 -17 16 -1 0 -10 -5 -19 -11z"/>
<path d="M14183 7554 c-7 -3 -13 -12 -13 -20 0 -12 10 -14 43 -12 29 2 42 8
42 18 0 15 -47 24 -72 14z"/>
<path d="M21225 7550 c-11 -19 6 -30 46 -30 27 0 39 4 39 14 0 24 -72 38 -85
16z"/>
<path d="M27750 7539 c-7 -11 -9 -31 -6 -44 6 -22 2 -24 -41 -32 -49 -8 -2895
-10 -6947 -5 l-2229 3 -33 -56 c-19 -31 -34 -58 -34 -61 0 -2 2476 -4 5503 -4
3026 0 5512 -3 5525 -6 13 -4 21 -12 18 -19 -10 -27 19 -35 123 -35 115 0 154
6 148 24 -2 6 -19 13 -38 16 -29 5 -31 7 -13 13 63 22 684 61 684 43 0 -24
-45 -88 -71 -102 -39 -19 -74 -12 -112 24 l-29 27 -28 -33 c-15 -19 -45 -40
-66 -47 -59 -20 -50 -40 16 -41 67 -1 160 -40 185 -78 10 -14 23 -26 31 -26
12 0 98 99 92 106 -2 1 -22 -3 -46 -9 -31 -8 -45 -8 -53 0 -16 16 -4 29 30 36
22 5 37 19 56 52 43 72 51 75 203 75 112 0 134 2 139 16 3 9 -3 25 -16 37 -17
18 -36 23 -100 25 -70 4 -81 2 -101 -18 -16 -16 -24 -19 -35 -10 -24 20 -375
29 -1515 40 -608 5 -1123 10 -1144 10 -38 0 -39 1 -22 19 20 22 10 53 -24 71
-27 15 -38 13 -50 -11z"/>
<path d="M8620 7530 c-20 -13 -1 -44 30 -48 34 -5 70 7 70 23 0 29 -67 46
-100 25z"/>
<path d="M26760 7530 c-20 -13 -1 -44 30 -48 34 -5 70 7 70 23 0 29 -67 46
-100 25z"/>
<path d="M4545 7488 c-15 -18 -57 -56 -93 -83 -37 -28 -67 -57 -67 -65 0 -24
54 -25 85 -1 30 21 50 13 50 -21 0 -28 27 -21 53 15 59 78 71 133 37 167 -27
27 -34 25 -65 -12z"/>
<path d="M30878 7509 c-37 -21 -41 -46 -15 -102 37 -80 97 -135 97 -89 0 34
20 42 50 21 31 -24 85 -23 85 1 0 8 -30 37 -67 65 -37 27 -75 61 -85 75 -28
41 -38 45 -65 29z"/>
<path d="M16840 7311 c0 -11 163 -23 198 -14 24 6 24 7 7 14 -27 11 -205 11
-205 0z"/>
<path d="M18436 7311 c-19 -7 -19 -8 -1 -15 25 -9 205 4 205 15 0 11 -177 11
-204 0z"/>
<path d="M4590 7221 c-62 -19 -90 -41 -90 -70 0 -30 27 -61 52 -61 43 0 208
103 208 130 0 12 -133 12 -170 1z"/>
<path d="M30720 7220 c0 -27 165 -130 210 -130 20 0 45 26 54 56 9 28 -16 48
-83 68 -60 17 -181 22 -181 6z"/>
<path d="M17705 6910 c-9 -15 13 -40 35 -40 22 0 44 25 35 40 -3 5 -19 10 -35
10 -16 0 -32 -5 -35 -10z"/>
  </g>

  <!-- LEFT side ornament: scaled up to span above upper bar and below lower bar, connecting to both -->
  <g id="side-left" transform="translate(-86,254) scale(2.4,2.4)">
    <g transform="translate(-0.018432,188.747561) scale(0.100000,-0.100000)"
       fill="#d6b06a" stroke="none">
fill="#d6b06a" stroke="none">
<path d="M1143 1876 c-25 -44 -131 -138 -190 -168 -60 -30 -79 -48 -50 -48 7
0 19 6 25 12 9 9 15 10 20 2 4 -6 16 -14 26 -18 18 -6 18 -8 -4 -28 -13 -12
-46 -27 -74 -34 -39 -9 -46 -13 -31 -19 11 -3 27 -10 35 -15 34 -18 210 66
303 145 36 30 73 55 81 55 9 0 16 6 16 14 0 10 -16 15 -57 18 -53 3 -60 1 -81
-24 -31 -36 -142 -90 -177 -86 -27 3 -26 4 26 40 30 21 75 57 100 82 43 41 48
43 63 28 15 -15 16 -15 16 0 0 9 -8 26 -19 39 -17 21 -19 21 -28 5z m-3 -166
c0 -5 -11 -12 -25 -16 -19 -5 -24 -11 -20 -25 8 -23 -1 -24 -21 -4 -13 12 -10
17 23 34 45 24 43 23 43 11z"/>
<path d="M1200 1864 c0 -1 16 -11 36 -23 31 -18 37 -19 50 -7 24 24 16 31 -36
32 -28 0 -50 -1 -50 -2z"/>
<path d="M730 1769 c0 -31 33 -150 39 -140 5 8 14 5 27 -10 17 -20 17 -22 2
-16 -13 4 -17 1 -16 -11 3 -44 -1 -48 -44 -46 -24 1 -49 -3 -57 -9 -8 -7 0 13
18 44 38 67 42 103 4 39 -14 -25 -60 -80 -100 -123 -67 -71 -103 -126 -103
-158 0 -8 4 -8 15 1 21 17 29 7 15 -19 -6 -12 -8 -21 -5 -21 3 0 14 19 24 43
10 24 41 63 67 86 50 44 129 89 139 79 11 -10 -14 -131 -31 -149 -9 -10 -35
-27 -58 -38 -22 -11 -79 -59 -125 -107 -82 -84 -142 -123 -188 -124 -12 0 -25
5 -28 10 -3 5 -17 10 -30 10 -19 0 -23 4 -18 17 5 12 2 15 -10 10 -9 -3 -17
-2 -17 4 0 6 -5 7 -12 3 -31 -20 7 16 44 41 24 16 54 38 67 49 24 21 24 21 1
-19 -13 -22 -32 -52 -42 -67 -11 -16 -14 -28 -8 -28 6 0 32 35 59 78 27 42 63
93 80 113 17 20 31 39 31 43 0 18 -27 -1 -96 -64 -91 -84 -198 -150 -299 -182
-41 -12 -75 -25 -75 -28 0 -3 116 -5 258 -5 l257 1 113 109 c63 61 122 111
131 113 12 2 46 -29 102 -93 78 -89 129 -136 129 -118 0 4 -17 25 -37 47 -38
40 -38 40 5 6 24 -18 46 -39 49 -47 4 -9 25 -13 72 -13 66 1 66 1 36 17 -43
22 -91 70 -127 126 -16 26 -32 47 -34 47 -10 0 -1 -20 30 -73 19 -32 31 -55
25 -52 -5 4 -9 1 -9 -5 0 -6 -12 -3 -27 7 -34 22 -103 129 -103 160 0 12 -4
23 -10 23 -5 0 -10 -6 -10 -14 0 -8 -6 -17 -12 -19 -10 -4 -10 -6 -1 -6 7 -1
22 -20 34 -43 20 -42 19 -40 -50 31 -80 82 -80 78 -40 205 11 32 19 67 19 78
0 11 14 40 30 65 17 24 30 45 30 47 0 2 -18 11 -40 21 -23 10 -49 33 -61 52
-21 34 -29 40 -29 22z m-105 -299 c-21 -22 -41 -37 -44 -34 -6 6 66 74 78 74
3 0 -12 -18 -34 -40z"/>
<path d="M1036 1498 c-26 -29 -54 -72 -62 -95 -9 -24 -21 -43 -25 -43 -5 0 -9
-13 -9 -30 0 -43 15 -37 30 13 21 64 57 132 91 172 17 19 29 35 26 35 -3 0
-26 -24 -51 -52z"/>
<path d="M808 1354 c-3 -3 -4 -13 -1 -24 5 -18 6 -17 39 2 19 11 34 22 34 24
0 6 -66 5 -72 -2z"/>
<path d="M682 1166 c-34 -34 -62 -67 -62 -73 0 -19 79 -17 86 1 3 8 17 22 31
31 24 16 26 16 64 -15 28 -22 45 -29 57 -24 14 6 13 8 -8 12 -37 6 -90 61 -90
93 0 15 -3 30 -7 32 -5 2 -36 -24 -71 -57z"/>
<path d="M896 1033 c-20 -26 -61 -69 -92 -96 -55 -49 -55 -49 -97 -21 -45 30
-33 7 15 -27 28 -21 28 -21 92 15 35 20 71 48 81 63 16 24 13 23 -23 -9 -59
-53 -62 -47 -7 15 55 60 80 96 73 102 -3 3 -22 -16 -42 -42z"/>
<path d="M950 735 c0 -8 62 -110 78 -128 22 -25 9 -31 -19 -7 -36 30 -158 65
-173 49 -8 -9 -7 -11 6 -6 10 3 20 2 22 -2 3 -5 23 -11 44 -14 20 -4 68 -27
105 -52 77 -52 108 -57 125 -20 6 14 18 25 27 25 8 0 15 5 15 10 0 6 -4 10 -9
10 -6 0 -13 -4 -16 -10 -10 -16 -19 -12 -71 26 -49 36 -49 36 -6 -6 25 -24 41
-48 38 -56 -8 -22 -25 -17 -36 10 -5 13 -14 27 -19 31 -6 3 -32 37 -56 76 -41
62 -55 78 -55 64z"/>
<path d="M786 588 c-39 -22 -72 -68 -48 -68 10 0 76 69 71 74 -2 3 -13 0 -23
-6z"/>
<path d="M1164 488 c15 -20 34 -39 42 -42 8 -3 21 -21 29 -40 13 -30 40 -56
59 -56 11 0 6 31 -9 60 -14 28 -14 30 2 30 17 1 17 1 0 11 -14 8 -22 8 -30 0
-17 -17 -24 -14 -74 32 -47 42 -47 42 -19 5z"/>
<path d="M1123 318 c2 -23 4 -24 30 -16 37 13 46 31 12 22 -18 -4 -30 -2 -35
6 -5 8 -8 4 -7 -12z"/>
    </g>
  </g>

  <!-- LEFT connector: vertical spine joining the side ornament to the lower bar tip -->
  <g fill="#d6b06a" stroke="none">
    <path d="M 60 440 C 90 438 130 440 170 442 C 130 446 90 446 60 444 Z" />
    <path d="M 70 580 C 90 582 110 584 130 588 C 110 594 90 594 70 596 Z" />
  </g>

  <!-- RIGHT side ornament: mirror -->
  <g id="side-right" transform="translate(3156,254) scale(-2.4,2.4)">
    <g transform="translate(-0.018432,188.747561) scale(0.100000,-0.100000)"
       fill="#d6b06a" stroke="none">
fill="#d6b06a" stroke="none">
<path d="M1143 1876 c-25 -44 -131 -138 -190 -168 -60 -30 -79 -48 -50 -48 7
0 19 6 25 12 9 9 15 10 20 2 4 -6 16 -14 26 -18 18 -6 18 -8 -4 -28 -13 -12
-46 -27 -74 -34 -39 -9 -46 -13 -31 -19 11 -3 27 -10 35 -15 34 -18 210 66
303 145 36 30 73 55 81 55 9 0 16 6 16 14 0 10 -16 15 -57 18 -53 3 -60 1 -81
-24 -31 -36 -142 -90 -177 -86 -27 3 -26 4 26 40 30 21 75 57 100 82 43 41 48
43 63 28 15 -15 16 -15 16 0 0 9 -8 26 -19 39 -17 21 -19 21 -28 5z m-3 -166
c0 -5 -11 -12 -25 -16 -19 -5 -24 -11 -20 -25 8 -23 -1 -24 -21 -4 -13 12 -10
17 23 34 45 24 43 23 43 11z"/>
<path d="M1200 1864 c0 -1 16 -11 36 -23 31 -18 37 -19 50 -7 24 24 16 31 -36
32 -28 0 -50 -1 -50 -2z"/>
<path d="M730 1769 c0 -31 33 -150 39 -140 5 8 14 5 27 -10 17 -20 17 -22 2
-16 -13 4 -17 1 -16 -11 3 -44 -1 -48 -44 -46 -24 1 -49 -3 -57 -9 -8 -7 0 13
18 44 38 67 42 103 4 39 -14 -25 -60 -80 -100 -123 -67 -71 -103 -126 -103
-158 0 -8 4 -8 15 1 21 17 29 7 15 -19 -6 -12 -8 -21 -5 -21 3 0 14 19 24 43
10 24 41 63 67 86 50 44 129 89 139 79 11 -10 -14 -131 -31 -149 -9 -10 -35
-27 -58 -38 -22 -11 -79 -59 -125 -107 -82 -84 -142 -123 -188 -124 -12 0 -25
5 -28 10 -3 5 -17 10 -30 10 -19 0 -23 4 -18 17 5 12 2 15 -10 10 -9 -3 -17
-2 -17 4 0 6 -5 7 -12 3 -31 -20 7 16 44 41 24 16 54 38 67 49 24 21 24 21 1
-19 -13 -22 -32 -52 -42 -67 -11 -16 -14 -28 -8 -28 6 0 32 35 59 78 27 42 63
93 80 113 17 20 31 39 31 43 0 18 -27 -1 -96 -64 -91 -84 -198 -150 -299 -182
-41 -12 -75 -25 -75 -28 0 -3 116 -5 258 -5 l257 1 113 109 c63 61 122 111
131 113 12 2 46 -29 102 -93 78 -89 129 -136 129 -118 0 4 -17 25 -37 47 -38
40 -38 40 5 6 24 -18 46 -39 49 -47 4 -9 25 -13 72 -13 66 1 66 1 36 17 -43
22 -91 70 -127 126 -16 26 -32 47 -34 47 -10 0 -1 -20 30 -73 19 -32 31 -55
25 -52 -5 4 -9 1 -9 -5 0 -6 -12 -3 -27 7 -34 22 -103 129 -103 160 0 12 -4
23 -10 23 -5 0 -10 -6 -10 -14 0 -8 -6 -17 -12 -19 -10 -4 -10 -6 -1 -6 7 -1
22 -20 34 -43 20 -42 19 -40 -50 31 -80 82 -80 78 -40 205 11 32 19 67 19 78
0 11 14 40 30 65 17 24 30 45 30 47 0 2 -18 11 -40 21 -23 10 -49 33 -61 52
-21 34 -29 40 -29 22z m-105 -299 c-21 -22 -41 -37 -44 -34 -6 6 66 74 78 74
3 0 -12 -18 -34 -40z"/>
<path d="M1036 1498 c-26 -29 -54 -72 -62 -95 -9 -24 -21 -43 -25 -43 -5 0 -9
-13 -9 -30 0 -43 15 -37 30 13 21 64 57 132 91 172 17 19 29 35 26 35 -3 0
-26 -24 -51 -52z"/>
<path d="M808 1354 c-3 -3 -4 -13 -1 -24 5 -18 6 -17 39 2 19 11 34 22 34 24
0 6 -66 5 -72 -2z"/>
<path d="M682 1166 c-34 -34 -62 -67 -62 -73 0 -19 79 -17 86 1 3 8 17 22 31
31 24 16 26 16 64 -15 28 -22 45 -29 57 -24 14 6 13 8 -8 12 -37 6 -90 61 -90
93 0 15 -3 30 -7 32 -5 2 -36 -24 -71 -57z"/>
<path d="M896 1033 c-20 -26 -61 -69 -92 -96 -55 -49 -55 -49 -97 -21 -45 30
-33 7 15 -27 28 -21 28 -21 92 15 35 20 71 48 81 63 16 24 13 23 -23 -9 -59
-53 -62 -47 -7 15 55 60 80 96 73 102 -3 3 -22 -16 -42 -42z"/>
<path d="M950 735 c0 -8 62 -110 78 -128 22 -25 9 -31 -19 -7 -36 30 -158 65
-173 49 -8 -9 -7 -11 6 -6 10 3 20 2 22 -2 3 -5 23 -11 44 -14 20 -4 68 -27
105 -52 77 -52 108 -57 125 -20 6 14 18 25 27 25 8 0 15 5 15 10 0 6 -4 10 -9
10 -6 0 -13 -4 -16 -10 -10 -16 -19 -12 -71 26 -49 36 -49 36 -6 -6 25 -24 41
-48 38 -56 -8 -22 -25 -17 -36 10 -5 13 -14 27 -19 31 -6 3 -32 37 -56 76 -41
62 -55 78 -55 64z"/>
<path d="M786 588 c-39 -22 -72 -68 -48 -68 10 0 76 69 71 74 -2 3 -13 0 -23
-6z"/>
<path d="M1164 488 c15 -20 34 -39 42 -42 8 -3 21 -21 29 -40 13 -30 40 -56
59 -56 11 0 6 31 -9 60 -14 28 -14 30 2 30 17 1 17 1 0 11 -14 8 -22 8 -30 0
-17 -17 -24 -14 -74 32 -47 42 -47 42 -19 5z"/>
<path d="M1123 318 c2 -23 4 -24 30 -16 37 13 46 31 12 22 -18 -4 -30 -2 -35
6 -5 8 -8 4 -7 -12z"/>
    </g>
  </g>

  <g fill="#d6b06a" stroke="none">
    <path d="M 3010 440 C 2980 438 2940 440 2900 442 C 2940 446 2980 446 3010 444 Z" />
    <path d="M 3000 580 C 2980 582 2960 584 2940 588 C 2960 594 2980 594 3000 596 Z" />
  </g>
</svg>
